<?xml version="1.0" encoding="utf-8"?>
<!-- Generator: Adobe Adobe Illustrator 24.2.0, SVG Export Plug-In . SVG Version: 6.00 Build 0)  -->
<svg version="1.1" xmlns="http://www.w3.org/2000/svg" xmlns:xlink="http://www.w3.org/1999/xlink" x="0px" y="0px" width="700px"
	 height="554px" viewBox="0 0 700 554" style="enable-background:new 0 0 700 554;" xml:space="preserve">
<style type="text/css">
	.st0{fill:#1f2a50;}
	.st1{fill:#1f2a50;stroke:#1f2a50;stroke-width:6;stroke-miterlimit:10;}
	.st2{font-family:'Verdana';}
	.st3{font-size:124.918px;}
	.st4{letter-spacing:2.97;}
	.st5{font-family:'Verdana-Bold';}
	.st6{font-size:40.9424px;}
	.st7{letter-spacing:0.76;}
</style>
<g id="Layer_2">
	<g>
		<g>
			<g>
				<polygon class="st0" points="628.5,357.53 628,357.22 628,357.53 				"/>
				<path class="st0" d="M562.38,22.53H145.62C109.38,22.53,80,51.91,80,88.16v269.37l52.5-32.06V64.53h439v258.19l56.5,34.5V88.16
					C628,51.91,598.62,22.53,562.38,22.53z"/>
				<path class="st0" d="M428.09,136.61h-70.91H354h-71.57c-13,0-23.55,13.16-23.55,29.39v82.28l56.5-34.51
					c11.87-7.23,25.23-10.88,38.62-10.93c1.06,0,2.12,0.02,3.18,0.06c12.48,0.49,24.87,4.12,35.94,10.87l57.3,35V166
					C450.42,149.77,440.42,136.61,428.09,136.61z"/>
				<path class="st0" d="M492.03,80.53H354H215.97c-24.01,0-43.47,24.3-43.47,54.26v166.24l57.5-35.11V122.03h124h124v143.58
					l57.5,35.12V134.79C535.5,104.83,516.04,80.53,492.03,80.53z"/>
			</g>
		</g>
	</g>
</g>
<g id="Layer_3">
	<text transform="matrix(1.01 0 0 0.59 142.0718 432.3115)" class="st1 st2 st3 st4">CTTLC</text>
	<text transform="matrix(1.32 0 0 0.87 35.3086 517.4004)" class="st0 st5 st6 st7">EVERY CTTLC HELPS </text>
</g>
</svg>
